<svg xmlns="http://www.w3.org/2000/svg" xmlns:xlink="http://www.w3.org/1999/xlink" viewBox="0 0 225.9 281.3"><defs><style>.cls-1{fill:#42210b;}.cls-2{fill:url(#未命名漸層_78);}.cls-3{fill:url(#未命名漸層_78-2);}.cls-4{stroke:#42210b;}.cls-4,.cls-8{stroke-miterlimit:10;}.cls-10,.cls-5{fill:#fff;}.cls-6{fill:url(#未命名漸層_91);}.cls-7{fill:#b70000;}.cls-8{fill:none;stroke:#000;stroke-linecap:round;}.cls-9{fill:url(#未命名漸層_105);}.cls-10{opacity:0.2;}.cls-11{fill:url(#未命名漸層_105-2);}.cls-12{fill:url(#未命名漸層_105-3);}</style><radialGradient id="未命名漸層_78" cx="111.78" cy="203.13" r="77.24" gradientUnits="userSpaceOnUse"><stop offset="0" stop-color="#f9f9f9"/><stop offset="0.43" stop-color="#f6f6f6"/><stop offset="0.8" stop-color="#ebebeb"/><stop offset="1" stop-color="#e2e2e2"/></radialGradient><radialGradient id="未命名漸層_78-2" cx="111.78" cy="117.15" r="52.53" xlink:href="#未命名漸層_78"/><linearGradient id="未命名漸層_91" x1="142.46" y1="120.28" x2="114.51" y2="120.28" gradientUnits="userSpaceOnUse"><stop offset="0" stop-color="#f15a24"/><stop offset="0.41" stop-color="#ee5722"/><stop offset="0.77" stop-color="#e34e1e"/><stop offset="1" stop-color="#d84519"/></linearGradient><radialGradient id="未命名漸層_105" cx="143.36" cy="182.81" r="9.38" gradientUnits="userSpaceOnUse"><stop offset="0" stop-color="#0c4f07"/><stop offset="0.69" stop-color="#0c4c07"/><stop offset="1" stop-color="#0d4708"/></radialGradient><radialGradient id="未命名漸層_105-2" cx="147.5" cy="210.95" r="9.38" xlink:href="#未命名漸層_105"/><radialGradient id="未命名漸層_105-3" cx="146.49" cy="239.09" r="9.38" xlink:href="#未命名漸層_105"/></defs><g id="圖層_2" data-name="圖層 2"><g id="裝飾"><path class="cls-1" d="M159.55,176.29l64.79-41.94L167.18,186.2a6.27,6.27,0,1,1-8.43-9.29A9.05,9.05,0,0,1,159.55,176.29Z"/><path class="cls-1" d="M201.67,138.31l-1,14.56-1.22-1.14L225.9,150l-26.18,4-1.23.18v-1.32l0-14.59a1.57,1.57,0,0,1,3.13,0Z"/><circle class="cls-2" cx="111.78" cy="203.13" r="78.17"/><circle class="cls-3" cx="111.78" cy="117.15" r="53.15"/><circle class="cls-4" cx="96.95" cy="108.51" r="8.72"/><circle class="cls-4" cx="137.67" cy="102.41" r="8.72"/><circle class="cls-5" cx="99.86" cy="105.6" r="2.18"/><circle class="cls-5" cx="140.58" cy="99.5" r="2.18"/><path class="cls-6" d="M118,114l24.43,7.33s-19.74,5.18-24.43,5.18S113.34,114,118,114Z"/><path class="cls-7" d="M62.7,87.12S66.82,18.25,73,15.65s52.65,45.18,52.65,45.18Z"/><path class="cls-5" d="M134.9,70c-3.28,1.37-3.14,1.71-6.42,3.08s-3.36,1.17-6.64,2.54-4.35-1.2-7.63.17-2.51,3.22-5.79,4.59-3.76.21-7,1.58-2.42,3.44-5.7,4.81-4.45-1.43-7.73-.06-2.08,4.24-5.37,5.61S79.31,93.67,76,95s-4-.41-7.32,1-2.73,2.7-6,4.07c-1.75.73-3.19-1.41-3.92-3.16-1.44-3.47-1-3.67-2.41-7.14s-2.65-3-4.1-6.44c-.73-1.75.17-2.9,1.92-3.63L60.75,77c3.28-1.37,3.34-1.23,6.62-2.6s3.16-1.65,6.44-3,2.45-3.35,5.73-4.72,4.25,1,7.54-.41,2.61-3,5.89-4.34,3-2,6.29-3.41,4.46,1.47,7.74.1,2.46-3.34,5.75-4.71,4.09.57,7.38-.8,2.11-4.18,5.4-5.55c1.75-.73,3,2,3.69,3.72,1.44,3.47,1.71,3.36,3.16,6.83s2.7,3,4.15,6.42C137.26,66.21,136.65,69.22,134.9,70Z"/><path class="cls-5" d="M58.75,22.21c-1.12-2.69-2.87-5.55-2.52-8.25a18.24,18.24,0,0,1,3.69-8C61.57,3.82,64.67,3.16,67.36,2s5.27-2.33,8-2a16.29,16.29,0,0,1,7.6,3.41,15.71,15.71,0,0,1,4.69,6.69,14.68,14.68,0,0,1,.67,7.93,14.71,14.71,0,0,1-9.15,12.17,15,15,0,0,1-7.88,1.38c-2.79-.36-4.87-1.86-7.1-3.56S59.87,24.9,58.75,22.21Z"/><path class="cls-8" d="M102.35,137.2c3.21,1.57,1.35,4.32,5.69,5.27,2,.44,4.82-2.47,7.53-2.27,2.17.15,4.52,3.52,7.1,3.37,2.22-.13,4.19-3.7,6.68-4.15,2.22-.4,5.31,2.29,7.71,1.57,2.17-.66,3.29-4.59,5.59-5.55"/><circle class="cls-9" cx="143.36" cy="182.81" r="9.38"/><circle class="cls-10" cx="140.23" cy="179.68" r="3.13"/><circle class="cls-11" cx="147.5" cy="210.95" r="9.38"/><circle class="cls-10" cx="144.37" cy="207.82" r="3.13"/><circle class="cls-12" cx="146.49" cy="239.09" r="9.38"/><circle class="cls-10" cx="143.36" cy="235.96" r="3.13"/><path class="cls-1" d="M57.16,186.2,0,134.35l64.78,41.94A6.27,6.27,0,1,1,58,186.82,6.09,6.09,0,0,1,57.16,186.2Z"/><path class="cls-1" d="M25.79,138.2l.05,14.59v1.26l-1.17-.12L.78,151.54l24,.19-1.17,1.14-1-14.56a1.56,1.56,0,0,1,3.12-.21Z"/></g></g></svg>