<svg xmlns="http://www.w3.org/2000/svg" xmlns:xlink="http://www.w3.org/1999/xlink" viewBox="0 0 96.58 104"><defs><style>.cls-1{fill:#42210b;}.cls-2{fill:url(#未命名漸層_78);}.cls-3{fill:url(#未命名漸層_105);}.cls-4{fill:#fff;opacity:0.2;}.cls-5{fill:url(#未命名漸層_105-2);}.cls-6{fill:url(#未命名漸層_105-3);}.cls-7{fill:url(#未命名漸層_78-2);}.cls-8{fill:url(#未命名漸層_91);}.cls-9{fill:none;stroke:#000;stroke-linecap:round;stroke-miterlimit:10;stroke-width:0.25px;}</style><radialGradient id="未命名漸層_78" cx="592.38" cy="52.22" r="36.03" gradientTransform="matrix(-0.99, 0.17, 0.17, 0.99, 631.5, -82.03)" gradientUnits="userSpaceOnUse"><stop offset="0" stop-color="#f9f9f9"/><stop offset="0.43" stop-color="#f6f6f6"/><stop offset="0.8" stop-color="#ebebeb"/><stop offset="1" stop-color="#e2e2e2"/></radialGradient><radialGradient id="未命名漸層_105" cx="604.73" cy="43.21" r="4.38" gradientTransform="matrix(-0.99, 0.17, 0.17, 0.99, 631.5, -82.03)" gradientUnits="userSpaceOnUse"><stop offset="0" stop-color="#0c4f07"/><stop offset="0.69" stop-color="#0c4c07"/><stop offset="1" stop-color="#0d4708"/></radialGradient><radialGradient id="未命名漸層_105-2" cx="606.66" cy="56.34" r="4.38" xlink:href="#未命名漸層_105"/><radialGradient id="未命名漸層_105-3" cx="606.19" cy="69.47" r="4.38" xlink:href="#未命名漸層_105"/><radialGradient id="未命名漸層_78-2" cx="591.05" cy="-19.06" r="24.5" gradientTransform="matrix(-0.96, 0.29, 0.29, 0.96, 610.51, -129.86)" xlink:href="#未命名漸層_78"/><linearGradient id="未命名漸層_91" x1="603.93" y1="-17.6" x2="592.33" y2="-17.6" gradientTransform="matrix(-0.96, 0.29, 0.29, 0.96, 610.51, -129.86)" gradientUnits="userSpaceOnUse"><stop offset="0" stop-color="#f15a24"/><stop offset="0.41" stop-color="#ee5722"/><stop offset="0.77" stop-color="#e34e1e"/><stop offset="1" stop-color="#d84519"/></linearGradient></defs><g id="圖層_2" data-name="圖層 2"><g id="裝飾"><path class="cls-1" d="M31.83,57,.14,39.89l28.52,22a2.92,2.92,0,0,0,3.57-4.63A2.48,2.48,0,0,0,31.83,57Z"/><path class="cls-1" d="M10.83,40.89l1,6.73.53-.57L0,47.22l12.32.86.58,0-.05-.62-.57-6.78a.73.73,0,1,0-1.46.12S10.83,40.87,10.83,40.89Z"/><circle class="cls-2" cx="55.94" cy="67.54" r="36.46"/><circle class="cls-3" cx="42.27" cy="60.71" r="4.38"/><circle class="cls-4" cx="43.47" cy="59.03" r="1.46"/><circle class="cls-5" cx="42.54" cy="73.97" r="4.38"/><circle class="cls-4" cx="43.74" cy="72.29" r="1.46"/><circle class="cls-6" cx="45.18" cy="86.84" r="4.38"/><circle class="cls-4" cx="46.37" cy="85.16" r="1.46"/><path class="cls-1" d="M80.89,54.79,93.15,21,75.59,52.37a2.92,2.92,0,1,0,5.1,2.86A2.48,2.48,0,0,0,80.89,54.79Z"/><path class="cls-1" d="M83.36,28.16l3.16,6,.27.52.46-.3,9.33-6.2-9.86,5.31.73.22-2.78-6.21a.73.73,0,1,0-1.33.59A.05.05,0,0,0,83.36,28.16Z"/><circle class="cls-7" cx="39.73" cy="24.8" r="24.79"/><path class="cls-8" d="M36.51,24.26l-8.63,5.83s8.25.39,10.34-.25S38.61,23.62,36.51,24.26Z"/><path class="cls-9" d="M47.11,32.4c-.44,1.34-1.35.69-2.27,2-.48.69-.34,2.17-1.14,2.78s-2,0-3,.23S39,38.74,38,38.6c-.82-.1-1.44-1.39-2.42-1.79-.78-.31-2.11.24-3-.3"/><path class="cls-9" d="M22,22.15s4-6.77,9-1.64"/><path class="cls-9" d="M41.69,18.72s4-6.77,9-1.64"/></g></g></svg>