<svg xmlns="http://www.w3.org/2000/svg" xmlns:xlink="http://www.w3.org/1999/xlink" viewBox="0 0 92.11 100.92"><defs><style>.cls-1{fill:#42210b;}.cls-2{fill:url(#未命名漸層_78);}.cls-3{fill:url(#未命名漸層_105);}.cls-10,.cls-4{fill:#fff;}.cls-4{opacity:0.2;}.cls-5{fill:url(#未命名漸層_105-2);}.cls-6{fill:url(#未命名漸層_105-3);}.cls-7{fill:url(#未命名漸層_78-2);}.cls-8{fill:url(#未命名漸層_175);}.cls-9{stroke:#42210b;stroke-miterlimit:10;stroke-width:0.25px;}.cls-11{fill:url(#未命名漸層_91);}</style><radialGradient id="未命名漸層_78" cx="1548.65" cy="42.57" r="36.03" gradientTransform="matrix(-1, 0.06, 0.06, 1, 1596.93, -68.77)" gradientUnits="userSpaceOnUse"><stop offset="0" stop-color="#f9f9f9"/><stop offset="0.43" stop-color="#f6f6f6"/><stop offset="0.8" stop-color="#ebebeb"/><stop offset="1" stop-color="#e2e2e2"/></radialGradient><radialGradient id="未命名漸層_105" cx="1561.01" cy="33.57" r="4.38" gradientTransform="matrix(-1, 0.06, 0.06, 1, 1596.93, -68.77)" gradientUnits="userSpaceOnUse"><stop offset="0" stop-color="#0c4f07"/><stop offset="0.69" stop-color="#0c4c07"/><stop offset="1" stop-color="#0d4708"/></radialGradient><radialGradient id="未命名漸層_105-2" cx="1562.94" cy="46.69" r="4.38" xlink:href="#未命名漸層_105"/><radialGradient id="未命名漸層_105-3" cx="1562.46" cy="59.82" r="4.38" xlink:href="#未命名漸層_105"/><radialGradient id="未命名漸層_78-2" cx="2311.15" cy="108.27" r="25.29" gradientTransform="matrix(-0.91, -0.42, -0.42, 0.91, 2191.92, 898.83)" xlink:href="#未命名漸層_78"/><radialGradient id="未命名漸層_175" cx="179.77" cy="359.75" r="2.53" gradientTransform="translate(126.96 -359.15) rotate(38.3)" gradientUnits="userSpaceOnUse"><stop offset="0" stop-color="#b70000"/><stop offset="0.55" stop-color="#b40101"/><stop offset="1" stop-color="#aa0202"/></radialGradient><linearGradient id="未命名漸層_91" x1="2325.37" y1="109.28" x2="2314.55" y2="109.28" gradientTransform="matrix(-0.91, -0.42, -0.42, 0.91, 2191.92, 898.83)" gradientUnits="userSpaceOnUse"><stop offset="0" stop-color="#f15a24"/><stop offset="0.41" stop-color="#ee5722"/><stop offset="0.77" stop-color="#e34e1e"/><stop offset="1" stop-color="#d84519"/></linearGradient></defs><g id="圖層_2" data-name="圖層 2"><g id="裝飾"><path class="cls-1" d="M30.6,51.36.93,31l26,24.9a2.92,2.92,0,1,0,4-4.22A3.25,3.25,0,0,0,30.6,51.36Z"/><path class="cls-1" d="M11.45,33.11l.26,6.8.59-.51L0,38.25l12.16,2.17.57.1v-.61l.17-6.81a.73.73,0,0,0-.72-.74.73.73,0,0,0-.74.71Z"/><circle class="cls-2" cx="53.43" cy="64.46" r="36.46"/><circle class="cls-3" cx="40.57" cy="56.2" r="4.38"/><circle class="cls-4" cx="41.95" cy="54.66" r="1.46"/><circle class="cls-5" cx="39.42" cy="69.41" r="4.38"/><circle class="cls-4" cx="40.79" cy="67.87" r="1.46"/><circle class="cls-6" cx="40.66" cy="82.49" r="4.38"/><circle class="cls-4" cx="42.03" cy="80.95" r="1.46"/><path class="cls-1" d="M66.87,59.72,92.11,85.39,71.35,56a2.93,2.93,0,1,0-4.78,3.38A3.58,3.58,0,0,0,66.87,59.72Z"/><path class="cls-1" d="M89.83,73.44l-6.8.25-.59,0,.08.54,1.56,11.09-.54-11.19-.51.56,6.81.18a.73.73,0,0,0,0-1.46Z"/><circle class="cls-7" cx="49.35" cy="25.6" r="25.59"/><circle class="cls-8" cx="45.09" cy="34.6" r="2.53"/><circle class="cls-9" cx="56.42" cy="24.1" r="3.47"/><circle class="cls-9" cx="40.79" cy="13.54" r="3.47"/><circle class="cls-10" cx="55.85" cy="22.56" r="0.87"/><circle class="cls-10" cx="40.23" cy="12.01" r="0.87"/><path class="cls-11" d="M45.57,21.64,36,20.52s5,5.63,7,6.58S47.62,22.59,45.57,21.64Z"/></g></g></svg>