<svg xmlns="http://www.w3.org/2000/svg" xmlns:xlink="http://www.w3.org/1999/xlink" viewBox="0 0 103.28 101.25"><defs><style>.cls-1{fill:#42210b;}.cls-2{fill:url(#未命名漸層_78);}.cls-3{fill:url(#未命名漸層_78-2);}</style><radialGradient id="未命名漸層_78" cx="276.12" cy="66.99" r="36.03" gradientTransform="translate(-226.51 17.97) rotate(-4.15)" gradientUnits="userSpaceOnUse"><stop offset="0" stop-color="#f9f9f9"/><stop offset="0.43" stop-color="#f6f6f6"/><stop offset="0.8" stop-color="#ebebeb"/><stop offset="1" stop-color="#e2e2e2"/></radialGradient><radialGradient id="未命名漸層_78-2" cx="276.12" cy="26.89" r="24.5" xlink:href="#未命名漸層_78"/></defs><g id="圖層_2" data-name="圖層 2"><g id="裝飾"><path class="cls-1" d="M74.65,45.63l26.76-24.09L78.9,49.63A2.93,2.93,0,1,1,74.33,46,3.47,3.47,0,0,1,74.65,45.63Z"/><path class="cls-1" d="M91.26,25l.62,6.77-.64-.43,12-2.75L91.51,32.37l-.55.18-.1-.61-1-6.72a.74.74,0,0,1,.61-.84.73.73,0,0,1,.83.61S91.26,25,91.26,25Z"/><path class="cls-1" d="M29.4,52.16,0,72.93,25.66,47.68a2.92,2.92,0,1,1,4.1,4.17A3.47,3.47,0,0,1,29.4,52.16Z"/><path class="cls-1" d="M4.37,61.57,11,63l.57.13-.17.51L7.91,74.31,10.43,63.4l.4.64L4.1,63a.74.74,0,0,1-.61-.84.73.73,0,0,1,.83-.61Z"/><circle class="cls-2" cx="53.73" cy="64.79" r="36.46"/><circle class="cls-3" cx="50.83" cy="24.79" r="24.79"/></g></g></svg>