<svg xmlns="http://www.w3.org/2000/svg" xmlns:xlink="http://www.w3.org/1999/xlink" viewBox="0 0 84.85 119.96"><defs><style>.cls-1{fill:#42210b;}.cls-2{fill:url(#未命名漸層_78);}.cls-3{fill:url(#未命名漸層_78-2);}.cls-4{fill:url(#未命名漸層_91);}.cls-5{fill:none;stroke:#000;stroke-linecap:round;stroke-miterlimit:10;stroke-width:0.25px;}.cls-6{fill:url(#未命名漸層_105);}.cls-7{fill:#fff;opacity:0.2;}.cls-8{fill:url(#未命名漸層_105-2);}.cls-9{fill:url(#未命名漸層_105-3);}.cls-10{fill:url(#未命名漸層_121);}.cls-11{fill:url(#未命名漸層_175);}.cls-12{fill:url(#未命名漸層_126);}</style><radialGradient id="未命名漸層_78" cx="-553.92" cy="63.46" r="36.03" gradientTransform="matrix(-1, -0.09, -0.09, 1, -497.09, -31.85)" gradientUnits="userSpaceOnUse"><stop offset="0" stop-color="#f9f9f9"/><stop offset="0.43" stop-color="#f6f6f6"/><stop offset="0.8" stop-color="#ebebeb"/><stop offset="1" stop-color="#e2e2e2"/></radialGradient><radialGradient id="未命名漸層_78-2" cx="-553.92" cy="23.35" r="24.5" xlink:href="#未命名漸層_78"/><linearGradient id="未命名漸層_91" x1="-541.04" y1="24.81" x2="-552.64" y2="24.81" gradientTransform="matrix(-1, -0.09, -0.09, 1, -497.09, -31.85)" gradientUnits="userSpaceOnUse"><stop offset="0" stop-color="#f15a24"/><stop offset="0.41" stop-color="#ee5722"/><stop offset="0.77" stop-color="#e34e1e"/><stop offset="1" stop-color="#d84519"/></linearGradient><radialGradient id="未命名漸層_105" cx="-541.57" cy="54.45" r="4.38" gradientTransform="matrix(-1, -0.09, -0.09, 1, -497.09, -31.85)" gradientUnits="userSpaceOnUse"><stop offset="0" stop-color="#0c4f07"/><stop offset="0.69" stop-color="#0c4c07"/><stop offset="1" stop-color="#0d4708"/></radialGradient><radialGradient id="未命名漸層_105-2" cx="-539.64" cy="67.58" r="4.38" xlink:href="#未命名漸層_105"/><radialGradient id="未命名漸層_105-3" cx="-540.11" cy="80.71" r="4.38" xlink:href="#未命名漸層_105"/><linearGradient id="未命名漸層_121" x1="-601.33" y1="-8.4" x2="-571.75" y2="-8.4" gradientTransform="matrix(-0.93, -0.36, -0.36, 0.93, -484.97, -191.32)" gradientUnits="userSpaceOnUse"><stop offset="0" stop-color="#333"/><stop offset="1"/></linearGradient><radialGradient id="未命名漸層_175" cx="-586.54" cy="-4.78" r="10.7" gradientTransform="matrix(-0.93, -0.36, -0.36, 0.93, -484.97, -191.32)" gradientUnits="userSpaceOnUse"><stop offset="0" stop-color="#b70000"/><stop offset="0.55" stop-color="#b40101"/><stop offset="1" stop-color="#aa0202"/></radialGradient><linearGradient id="未命名漸層_126" x1="-606.52" y1="2.6" x2="-564.82" y2="2.6" gradientTransform="matrix(-0.93, -0.36, -0.36, 0.93, -484.97, -191.32)" gradientUnits="userSpaceOnUse"><stop offset="0" stop-color="#333"/><stop offset="0.32" stop-color="#303030"/><stop offset="0.57" stop-color="#262626"/><stop offset="0.8" stop-color="#151515"/><stop offset="1"/></linearGradient></defs><g id="圖層_2" data-name="圖層 2"><g id="裝飾"><path class="cls-1" d="M27.69,58,0,81,31,62.81a2.93,2.93,0,0,0-3-5.05A3,3,0,0,0,27.69,58Z"/><path class="cls-1" d="M4.92,71.5l6.61,1.59-.33-.7L6.74,83.91l5.4-11.11.26-.52-.59-.18-6.5-2a.74.74,0,0,0-.92.48.72.72,0,0,0,.48.91Z"/><circle class="cls-2" cx="48.39" cy="83.5" r="36.46"/><circle class="cls-3" cx="52.17" cy="43.57" r="24.79"/><path class="cls-4" d="M49.4,41.84l-10.2,2.1s7.47,3.5,9.65,3.71S51.58,42.05,49.4,41.84Z"/><path class="cls-5" d="M54.24,53.18c-.76,1-1.37.22-2.51,1.08-.62.46-.93,1.78-1.78,2.05s-1.69-.6-2.59-.74c-.74-.13-1.88.47-2.69-.06-.62-.41-.6-1.7-1.24-2.43-.5-.57-1.8-.66-2.3-1.46"/><circle class="cls-6" cx="36.94" cy="73.37" r="4.38"/><circle class="cls-7" cx="38.53" cy="72.06" r="1.46"/><circle class="cls-8" cx="33.78" cy="86.26" r="4.38"/><circle class="cls-7" cx="35.37" cy="84.94" r="1.46"/><circle class="cls-9" cx="33.02" cy="99.37" r="4.38"/><circle class="cls-7" cx="34.61" cy="98.05" r="1.46"/><path class="cls-10" d="M68.68,2.44c7.4,2.72,13.65,5.3,10.79,13.11L74.41,29.34l-13.75-5-13.75-5L52,5.47C54.83-2.34,61.27-.27,68.68,2.44Z"/><path class="cls-11" d="M48.5,14.92l2.08-5.66a100,100,0,0,1,27.3,10.61L75.8,25.56A94.14,94.14,0,0,0,48.5,14.92Z"/><path class="cls-12" d="M40.09,20.59A121.25,121.25,0,0,1,76.63,33.48a.66.66,0,0,0,.9-.25c.89-1.57,1.81-3.14,2.75-4.69a.66.66,0,0,0-.26-.91A127.84,127.84,0,0,0,42,14a.81.81,0,0,0-.94.51c-.52,1.77-1,3.54-1.48,5.31A.65.65,0,0,0,40.09,20.59Z"/><path class="cls-1" d="M64.54,76.9l19,30.6L69.74,74.24a2.93,2.93,0,0,0-5.41,2.24C64.39,76.62,64.47,76.77,64.54,76.9Z"/><path class="cls-1" d="M83.91,95.34l-6.69-1.25L76.65,94l-.05.55-.92,11.16,1.94-11-.62.43,6.6,1.68A.73.73,0,1,0,84,95.35Z"/><path class="cls-5" d="M65.63,38.3s-6.31,4.72-9-1.92"/><path class="cls-5" d="M46.12,34s-6.31,4.72-9-1.93"/></g></g></svg>