<svg xmlns="http://www.w3.org/2000/svg" xmlns:xlink="http://www.w3.org/1999/xlink" viewBox="0 0 106.1 99.34"><defs><style>.cls-1{fill:#42210b;}.cls-2{fill:url(#未命名漸層_78);}.cls-3{fill:url(#未命名漸層_78-2);}.cls-4{stroke:#42210b;stroke-miterlimit:10;stroke-width:0.25px;}.cls-5,.cls-9{fill:#fff;}.cls-6{fill:url(#未命名漸層_91);}.cls-7{fill:url(#未命名漸層_175);}.cls-8{fill:url(#未命名漸層_105);}.cls-9{opacity:0.2;}.cls-10{fill:url(#未命名漸層_105-2);}.cls-11{fill:url(#未命名漸層_105-3);}</style><radialGradient id="未命名漸層_78" cx="-1058.74" cy="709.11" r="37.19" gradientTransform="matrix(-0.54, 0.84, 0.84, 0.54, -1101.81, 565.92)" gradientUnits="userSpaceOnUse"><stop offset="0" stop-color="#f9f9f9"/><stop offset="0.43" stop-color="#f6f6f6"/><stop offset="0.8" stop-color="#ebebeb"/><stop offset="1" stop-color="#e2e2e2"/></radialGradient><radialGradient id="未命名漸層_78-2" cx="-1402.81" cy="204.3" r="25.29" gradientTransform="matrix(-0.97, 0.23, 0.23, 0.97, -1379.85, 152.96)" xlink:href="#未命名漸層_78"/><linearGradient id="未命名漸層_91" x1="-1388.59" y1="205.31" x2="-1399.41" y2="205.31" gradientTransform="matrix(-0.97, 0.23, 0.23, 0.97, -1379.85, 152.96)" gradientUnits="userSpaceOnUse"><stop offset="0" stop-color="#f15a24"/><stop offset="0.41" stop-color="#ee5722"/><stop offset="0.77" stop-color="#e34e1e"/><stop offset="1" stop-color="#d84519"/></linearGradient><radialGradient id="未命名漸層_175" cx="277.01" cy="127.56" r="5.1" gradientTransform="matrix(0.74, -0.09, 0.12, 0.99, -187.07, -67.76)" gradientUnits="userSpaceOnUse"><stop offset="0" stop-color="#b70000"/><stop offset="0.55" stop-color="#b40101"/><stop offset="1" stop-color="#aa0202"/></radialGradient><radialGradient id="未命名漸層_105" cx="-1038.61" cy="684.13" r="4.52" gradientTransform="matrix(-0.54, 0.84, 0.84, 0.54, -1101.81, 565.92)" gradientUnits="userSpaceOnUse"><stop offset="0" stop-color="#0c4f07"/><stop offset="0.69" stop-color="#0c4c07"/><stop offset="1" stop-color="#0d4708"/></radialGradient><radialGradient id="未命名漸層_105-2" cx="-1029.56" cy="696.61" r="4.52" xlink:href="#未命名漸層_105"/><radialGradient id="未命名漸層_105-3" cx="-1025.98" cy="713.15" r="4.52" xlink:href="#未命名漸層_105"/></defs><g id="圖層_2" data-name="圖層 2"><g id="裝飾"><path class="cls-1" d="M36.29,60.43,0,68.42l37.1-2a3,3,0,0,0-.33-6A3.7,3.7,0,0,0,36.29,60.43Z"/><path class="cls-1" d="M9,62l5.31,4.6,0-.8L4.82,74.25,15,66.62l.48-.36-.46-.44-5-4.92A.75.75,0,1,0,9,62Z"/><circle class="cls-2" cx="68.46" cy="61.7" r="37.63"/><circle class="cls-3" cx="32.02" cy="25.6" r="25.59"/><circle class="cls-4" cx="36.64" cy="20.04" r="3.47"/><circle class="cls-4" cx="17.84" cy="21.44" r="3.47"/><circle class="cls-5" cx="35.25" cy="19.18" r="0.87"/><circle class="cls-5" cx="16.44" cy="20.59" r="0.87"/><path class="cls-6" d="M26.6,24.83l-8.18,5s7.39,1.35,9.58.83S28.8,24.31,26.6,24.83Z"/><path class="cls-7" d="M29.36,35.1s7.5,2.34,9.13-4.28C38.49,30.82,40,43.49,29.36,35.1Z"/><circle class="cls-8" cx="36.56" cy="65.04" r="4.52"/><circle class="cls-9" cx="36.11" cy="62.96" r="1.51"/><circle class="cls-10" cx="42.12" cy="79.42" r="4.52"/><circle class="cls-9" cx="41.67" cy="77.34" r="1.51"/><circle class="cls-11" cx="54.07" cy="91.41" r="4.52"/><circle class="cls-9" cx="53.62" cy="89.33" r="1.51"/><path class="cls-1" d="M70.69,43.89,42,67.45,74.12,48.84a3,3,0,0,0-3-5.23A2.86,2.86,0,0,0,70.69,43.89Z"/><path class="cls-1" d="M54.46,66.22l.37-7,0-.6-.56,0-11.55.57,11.55.49-.53-.58-.81,7a.76.76,0,0,0,.66.84.75.75,0,0,0,.83-.66A.11.11,0,0,0,54.46,66.22Z"/></g></g></svg>