<svg xmlns="http://www.w3.org/2000/svg" xmlns:xlink="http://www.w3.org/1999/xlink" viewBox="0 0 97.48 123.47"><defs><style>.cls-1{fill:#42210b;}.cls-2{fill:url(#未命名漸層_78);}.cls-3{fill:url(#未命名漸層_105);}.cls-10,.cls-4{fill:#fff;}.cls-4{opacity:0.2;}.cls-5{fill:url(#未命名漸層_105-2);}.cls-6{fill:url(#未命名漸層_105-3);}.cls-7{fill:url(#未命名漸層_78-2);}.cls-8{fill:url(#未命名漸層_175);}.cls-9{stroke:#42210b;stroke-miterlimit:10;stroke-width:0.25px;}.cls-11{fill:url(#未命名漸層_91);}.cls-12{fill:url(#未命名漸層_121);}.cls-13{fill:url(#未命名漸層_175-2);}.cls-14{fill:url(#未命名漸層_126);}</style><radialGradient id="未命名漸層_78" cx="368.6" cy="416.42" r="36.03" gradientTransform="translate(-121.11 -446.33) rotate(25.05)" gradientUnits="userSpaceOnUse"><stop offset="0" stop-color="#f9f9f9"/><stop offset="0.43" stop-color="#f6f6f6"/><stop offset="0.8" stop-color="#ebebeb"/><stop offset="1" stop-color="#e2e2e2"/></radialGradient><radialGradient id="未命名漸層_105" cx="380.95" cy="407.42" r="4.38" gradientTransform="translate(-121.11 -446.33) rotate(25.05)" gradientUnits="userSpaceOnUse"><stop offset="0" stop-color="#0c4f07"/><stop offset="0.69" stop-color="#0c4c07"/><stop offset="1" stop-color="#0d4708"/></radialGradient><radialGradient id="未命名漸層_105-2" cx="382.88" cy="420.55" r="4.38" xlink:href="#未命名漸層_105"/><radialGradient id="未命名漸層_105-3" cx="382.41" cy="433.67" r="4.38" xlink:href="#未命名漸層_105"/><radialGradient id="未命名漸層_78-2" cx="1619.06" cy="275.69" r="25.29" gradientTransform="translate(-1306.35 -865.51) rotate(24.14)" xlink:href="#未命名漸層_78"/><radialGradient id="未命名漸層_175" cx="1245.77" cy="187.36" r="2.53" gradientTransform="matrix(-1.96, -0.34, -0.37, 1.82, 2574.94, 150.16)" gradientUnits="userSpaceOnUse"><stop offset="0" stop-color="#b70000"/><stop offset="0.55" stop-color="#b40101"/><stop offset="1" stop-color="#aa0202"/></radialGradient><linearGradient id="未命名漸層_91" x1="1633.28" y1="276.7" x2="1622.46" y2="276.7" gradientTransform="translate(-1306.35 -865.51) rotate(24.14)" gradientUnits="userSpaceOnUse"><stop offset="0" stop-color="#f15a24"/><stop offset="0.41" stop-color="#ee5722"/><stop offset="0.77" stop-color="#e34e1e"/><stop offset="1" stop-color="#d84519"/></linearGradient><linearGradient id="未命名漸層_121" x1="2194.16" y1="19.02" x2="2223.73" y2="19.02" gradientTransform="matrix(-0.97, 0.26, 0.26, 0.97, 2178.12, -584.5)" gradientUnits="userSpaceOnUse"><stop offset="0" stop-color="#333"/><stop offset="1"/></linearGradient><radialGradient id="未命名漸層_175-2" cx="2208.94" cy="22.65" r="10.7" gradientTransform="matrix(-0.97, 0.26, 0.26, 0.97, 2178.12, -584.5)" xlink:href="#未命名漸層_175"/><linearGradient id="未命名漸層_126" x1="2187.57" y1="29.8" x2="2228.98" y2="29.8" gradientTransform="matrix(-0.97, 0.26, 0.26, 0.97, 2178.12, -584.5)" gradientUnits="userSpaceOnUse"><stop offset="0" stop-color="#333"/><stop offset="0.32" stop-color="#303030"/><stop offset="0.57" stop-color="#262626"/><stop offset="0.8" stop-color="#151515"/><stop offset="1"/></linearGradient></defs><g id="圖層_2" data-name="圖層 2"><g id="裝飾"><path class="cls-1" d="M64.41,80.48,97.48,94.71,62.55,86A2.93,2.93,0,1,1,64,80.32,3.43,3.43,0,0,1,64.41,80.48Z"/><path class="cls-1" d="M90.06,87l-5.9,3.4.13-.77,7.53,9.79L83.5,90.24l-.39-.42.51-.35,5.67-3.76a.73.73,0,1,1,.81,1.21Z"/><circle class="cls-2" cx="36.47" cy="87.01" r="36.46"/><circle class="cls-3" cx="51.47" cy="84.08" r="4.38"/><circle class="cls-4" cx="50.76" cy="82.14" r="1.46"/><circle class="cls-5" cx="47.66" cy="96.79" r="4.38"/><circle class="cls-4" cx="46.95" cy="94.85" r="1.46"/><circle class="cls-6" cx="41.67" cy="108.48" r="4.38"/><circle class="cls-4" cx="40.97" cy="106.54" r="1.46"/><path class="cls-1" d="M23.1,63.59,52.07,85,20,68.55a2.93,2.93,0,0,1,2.67-5.21A2.7,2.7,0,0,1,23.1,63.59Z"/><path class="cls-1" d="M39.92,84.38l-.71-6.76L39.15,77h.55l11.2,0-11.15,1,.48-.58,1.14,6.71a.74.74,0,0,1-.6.84.73.73,0,0,1-.84-.6A.43.43,0,0,1,39.92,84.38Z"/><circle class="cls-7" cx="58.35" cy="48.25" r="25.59"/><ellipse class="cls-8" cx="60.06" cy="62.71" rx="5.04" ry="4.68"/><circle class="cls-9" cx="54.85" cy="41.93" r="3.47"/><circle class="cls-9" cx="73.06" cy="46.8" r="3.47"/><circle class="cls-10" cx="56.37" cy="41.35" r="0.87"/><circle class="cls-10" cx="74.59" cy="46.22" r="0.87"/><path class="cls-11" d="M63.82,48.5,70.92,55s-7.51,0-9.57-1S61.76,47.58,63.82,48.5Z"/><path class="cls-12" d="M48.07,1.82C55.64-.4,62.2-2,64.54,6l4.13,14.1L54.62,24.16,40.56,28.28l-4.13-14.1C34.1,6.2,40.5,4,48.07,1.82Z"/><path class="cls-13" d="M39.26,23.84c-.46-1.55-1-3.52-1.69-5.78a100.1,100.1,0,0,1,28.26-7.7c.68,2.31,1.26,4.3,1.71,5.82A93.9,93.9,0,0,0,39.26,23.84Z"/><path class="cls-14" d="M37.45,31.77a124,124,0,0,1,37.18-9.33.67.67,0,0,0,.63-.72q-.36-2.7-.78-5.4a.77.77,0,0,0-.85-.59A130.89,130.89,0,0,0,34.7,25.6a.67.67,0,0,0-.36.88q1.15,2.46,2.23,4.94A.68.68,0,0,0,37.45,31.77Z"/></g></g></svg>