<svg xmlns="http://www.w3.org/2000/svg" xmlns:xlink="http://www.w3.org/1999/xlink" viewBox="0 0 110.35 72.73"><defs><style>.cls-1{fill:#42210b;}.cls-2{fill:url(#未命名漸層_78);}.cls-3{fill:url(#未命名漸層_105);}.cls-4{fill:#fff;opacity:0.2;}.cls-5{fill:url(#未命名漸層_105-2);}.cls-6{fill:url(#未命名漸層_105-3);}.cls-7{fill:url(#未命名漸層_78-2);}.cls-8{fill:url(#未命名漸層_175);}.cls-9{fill:url(#未命名漸層_91);}.cls-10{fill:none;stroke:#000;stroke-linecap:round;stroke-linejoin:round;stroke-width:0.25px;}</style><radialGradient id="未命名漸層_78" cx="1566.37" cy="-704.34" r="35.41" gradientTransform="matrix(-0.12, 0.99, 0.99, 0.12, 963.78, -1433.47)" gradientUnits="userSpaceOnUse"><stop offset="0" stop-color="#f9f9f9"/><stop offset="0.43" stop-color="#f6f6f6"/><stop offset="0.8" stop-color="#ebebeb"/><stop offset="1" stop-color="#e2e2e2"/></radialGradient><radialGradient id="未命名漸層_105" cx="1596.26" cy="-717.71" r="4.3" gradientTransform="matrix(-0.12, 0.99, 0.99, 0.12, 963.78, -1433.47)" gradientUnits="userSpaceOnUse"><stop offset="0" stop-color="#0c4f07"/><stop offset="0.69" stop-color="#0c4c07"/><stop offset="1" stop-color="#0d4708"/></radialGradient><radialGradient id="未命名漸層_105-2" cx="1598.16" cy="-704.81" r="4.3" xlink:href="#未命名漸層_105"/><radialGradient id="未命名漸層_105-3" cx="1597.7" cy="-691.92" r="4.3" xlink:href="#未命名漸層_105"/><radialGradient id="未命名漸層_78-2" cx="2370.22" cy="-873.58" r="24.85" gradientTransform="matrix(-0.09, 1, 1, 0.09, 1112.69, -2251.23)" xlink:href="#未命名漸層_78"/><radialGradient id="未命名漸層_175" cx="450.74" cy="-641.61" r="2.48" gradientTransform="translate(500.14 679.35) rotate(-71.29)" gradientUnits="userSpaceOnUse"><stop offset="0" stop-color="#b70000"/><stop offset="0.55" stop-color="#b40101"/><stop offset="1" stop-color="#aa0202"/></radialGradient><linearGradient id="未命名漸層_91" x1="2724.68" y1="-751.01" x2="2714.04" y2="-751.01" gradientTransform="matrix(-0.54, 0.84, 0.84, 0.54, 2130.84, -1825.19)" gradientUnits="userSpaceOnUse"><stop offset="0" stop-color="#f15a24"/><stop offset="0.41" stop-color="#ee5722"/><stop offset="0.77" stop-color="#e34e1e"/><stop offset="1" stop-color="#d84519"/></linearGradient></defs><g id="圖層_2" data-name="圖層 2"><g id="裝飾"><path class="cls-1" d="M47.51,51.14,13.53,61l35.12-4.2A2.88,2.88,0,0,0,48,51.05,3.26,3.26,0,0,0,47.51,51.14Z"/><path class="cls-1" d="M21.71,54.31l5.33,4,0-.77L18.47,66.2l9.23-7.87.43-.37-.46-.4-5.06-4.37a.72.72,0,0,0-.94,1.09Z"/><circle class="cls-2" cx="74.52" cy="35.83" r="35.83"/><circle class="cls-3" cx="57.62" cy="63.88" r="4.3"/><circle class="cls-4" cx="56.37" cy="62.28" r="1.43"/><circle class="cls-5" cx="70.19" cy="67.32" r="4.3"/><circle class="cls-4" cx="68.95" cy="65.73" r="1.43"/><circle class="cls-6" cx="83.05" cy="68.43" r="4.3"/><circle class="cls-4" cx="81.81" cy="66.83" r="1.43"/><circle class="cls-7" cx="25.15" cy="28.76" r="25.15"/><circle class="cls-8" cx="37.02" cy="46.62" r="2.48"/><path class="cls-9" d="M22.79,45.55l-2.4,9.13s6.17-4,7.37-5.91S24,43.69,22.79,45.55Z"/><polyline class="cls-10" points="9.82 43.13 16 41.05 12.83 47.3"/><polyline class="cls-10" points="25.29 27.6 22.86 34.71 29.09 31.51"/><path class="cls-1" d="M61.85,26.1,30.68,9.37,58.74,30.91a2.87,2.87,0,1,0,3.5-4.56A3.22,3.22,0,0,0,61.85,26.1Z"/><path class="cls-1" d="M36.31,19.92l6.31-2.22.54-.19L42.93,17l-4.7-9.95L42,17.41l.31-.67-6.44,1.81a.72.72,0,0,0-.49.89.71.71,0,0,0,.88.49Z"/></g></g></svg>