<svg xmlns="http://www.w3.org/2000/svg" xmlns:xlink="http://www.w3.org/1999/xlink" viewBox="0 0 108.3 104.45"><defs><style>.cls-1{fill:#42210b;}.cls-2{fill:url(#未命名漸層_78);}.cls-3{fill:url(#未命名漸層_105);}.cls-4{fill:#fff;opacity:0.2;}.cls-5{fill:url(#未命名漸層_105-2);}.cls-6{fill:url(#未命名漸層_105-3);}.cls-7{fill:url(#未命名漸層_78-2);}.cls-8{fill:url(#未命名漸層_91);}.cls-9{fill:#b70000;}.cls-10{fill:none;stroke:#000;stroke-linecap:round;stroke-miterlimit:10;stroke-width:0.25px;}</style><radialGradient id="未命名漸層_78" cx="278.55" cy="63.42" r="36.03" gradientTransform="translate(-231.12 24.9) rotate(-4.15)" gradientUnits="userSpaceOnUse"><stop offset="0" stop-color="#f9f9f9"/><stop offset="0.43" stop-color="#f6f6f6"/><stop offset="0.8" stop-color="#ebebeb"/><stop offset="1" stop-color="#e2e2e2"/></radialGradient><radialGradient id="未命名漸層_105" cx="290.9" cy="54.42" r="4.38" gradientTransform="translate(-231.12 24.9) rotate(-4.15)" gradientUnits="userSpaceOnUse"><stop offset="0" stop-color="#0c4f07"/><stop offset="0.69" stop-color="#0c4c07"/><stop offset="1" stop-color="#0d4708"/></radialGradient><radialGradient id="未命名漸層_105-2" cx="292.83" cy="67.55" r="4.38" xlink:href="#未命名漸層_105"/><radialGradient id="未命名漸層_105-3" cx="292.36" cy="80.67" r="4.38" xlink:href="#未命名漸層_105"/><radialGradient id="未命名漸層_78-2" cx="284.23" cy="-15.39" r="24.5" gradientTransform="translate(-223.98 96.13) rotate(-11.41)" xlink:href="#未命名漸層_78"/><linearGradient id="未命名漸層_91" x1="297.11" y1="-13.93" x2="285.51" y2="-13.93" gradientTransform="translate(-223.98 96.13) rotate(-11.41)" gradientUnits="userSpaceOnUse"><stop offset="0" stop-color="#f15a24"/><stop offset="0.41" stop-color="#ee5722"/><stop offset="0.77" stop-color="#e34e1e"/><stop offset="1" stop-color="#d84519"/></linearGradient></defs><g id="圖層_2" data-name="圖層 2"><g id="裝飾"><path class="cls-1" d="M72.5,48.65l35.8-3.71L73.57,54.39A2.93,2.93,0,0,1,72,48.74,3.89,3.89,0,0,1,72.5,48.65Z"/><path class="cls-1" d="M98,41.78l-3.48,5.85-.27-.73,11.35,4.87L93.92,47.86l-.54-.18.28-.55,3.11-6.05a.72.72,0,1,1,1.29.66A.05.05,0,0,1,98,41.78Z"/><circle class="cls-2" cx="51.29" cy="67.99" r="36.46"/><circle class="cls-3" cx="62.96" cy="58.11" r="4.38"/><circle class="cls-4" cx="61.4" cy="56.77" r="1.46"/><circle class="cls-5" cx="65.84" cy="71.07" r="4.38"/><circle class="cls-4" cx="64.28" cy="69.72" r="1.46"/><circle class="cls-6" cx="66.32" cy="84.19" r="4.38"/><circle class="cls-4" cx="64.75" cy="82.84" r="1.46"/><path class="cls-1" d="M27.79,58.66,0,35.78,31.12,53.87a2.93,2.93,0,1,1-2.95,5.06A2.6,2.6,0,0,1,27.79,58.66Z"/><path class="cls-1" d="M12.1,37l.35,6.79,0,.59-.55,0L.75,43.77l11.19-.45-.52.56-.77-6.76A.73.73,0,0,1,12.1,37Z"/><circle class="cls-7" cx="51.58" cy="24.8" r="24.79"/><path class="cls-8" d="M54.15,22.79l10.37,1s-7.07,4.27-9.22,4.7S52,23.22,54.15,22.79Z"/><path class="cls-9" d="M61.19,30.8c-3.91,12.24-10.7,2.62-10.7,2.62S58,35.49,61.19,30.8Z"/><path class="cls-10" d="M65.91,14s-6.76-4-8.72,2.85"/><path class="cls-10" d="M47,20.38s-6.77-4-8.72,2.86"/></g></g></svg>